# xmcd
#
# Track frame offsets: 
#        150
#        49727
#        72742
#        91707
#        105052
#        139650
#        163767
#        197157
#        228655
#        263152
#        292655
#
# Disc length: 4426 seconds
#
# Revision: 1
# Processed by: cddbd v1.5.2PL0 Copyright (c) Steve Scherf et al.
# Submitted via: ExactAudioCopyFreeDBPlugin 1.0
#
DISCID=9311480b
DTITLE=Eric Clapton - Lost Club Shows - House Of Blues (11-22-94) Disc
DTITLE=4
DYEAR=2002
DGENRE=Blues
TTITLE0=Early In The Morning
TTITLE1=Everyday I Have the Blues
TTITLE2=Someday After a While
TTITLE3=Tore Down
TTITLE4=Have You Ever Loved A Woman
TTITLE5=Crosscut saw
TTITLE6=Groaning The Blues
TTITLE7=Crossroads
TTITLE8=Five Long Years
TTITLE9=Blues Jam
TTITLE10=What A Shame
EXTD=
EXTT0=
EXTT1=
EXTT2=
EXTT3=
EXTT4=
EXTT5=
EXTT6=
EXTT7=
EXTT8=
EXTT9=
EXTT10=
PLAYORDER=
